<svg xmlns="http://www.w3.org/2000/svg" xmlns:xlink="http://www.w3.org/1999/xlink" xmlns:inkscape="http://www.inkscape.org/namespaces/inkscape" version="1.1" width="1000" height="1000" viewBox="0 0 1000 1000">
<path transform="matrix(1,0,0,-1,0,1000)" d=""/>
<path transform="matrix(1,0,0,-1,0,1000)" d="M481.01 815.2C482.63 815.05 484.52 815.23 485.73 813.88 490.9 809.07 494.79 803.05 497.97 796.78 499.81 793.62 499.74 789.52 497.53 786.56 501.48 784.32 504.9 781.27 508.06 778.03 510.81 775.19 511.78 771.25 513.21 767.68 518.09 764.92 522.56 761.09 525.24 756.09 528.18 750.57 528.15 743.76 525.65 738.07 538.91 727.34 548.61 712.08 551.28 695.11 553.54 685.64 552.71 675.88 552.25 666.27 558.08 673.15 562.11 681.35 564.74 689.93 569.32 706.89 569.56 725.28 564.01 742.05 562.01 748.08 559.96 754.15 556.65 759.6 551.65 767.7 545 774.63 538.04 781.06 531.84 786.78 524.43 790.89 517.26 795.24 513.3 797.6 508.89 799.31 505.36 802.35 503.89 803.42 504.14 805.52 504.58 807.04 506.08 808.74 508.4 807.75 510.22 807.26 516.9 805.05 523.13 801.69 529.42 798.56 544.92 789.6 558.33 776.52 566.37 760.4 581.7 730.92 580.93 693.22 562.98 665.05 559.78 659.98 555.92 655.37 552.42 650.51 560.12 647.49 563.18 638.64 563.21 630.98 563.19 623.05 559.04 616.03 554.48 609.85 558.34 604.36 561.92 597.93 560.91 590.96 560.04 584.76 556.48 578 549.95 576.41 545.68 575.05 541.23 576.37 537.44 578.4 536.65 575.28 535.89 572.15 535.25 568.99 538.08 566.07 541.48 563.65 545.41 562.46 554.29 559.66 563.51 557.97 572.81 557.44 573.12 564.77 570.03 571.55 566.59 577.82 564.93 580.32 566.09 583.23 566.29 585.93 565.9 588.57 565.29 591.16 565.06 593.81 566.55 591.16 567.87 588.37 569.83 586.01 576.48 578.37 580.72 568.6 581.66 558.5 595.26 558.7 609.08 559.23 622.34 555.62 622.25 572.1 624.23 588.52 624.2 605 624.19 608.99 621 612.08 620.81 616.02 620.3 619.72 621.35 623.33 621.88 626.95 621.47 629.99 620.36 632.91 620.25 635.99 620.07 641.38 621.45 646.73 623.86 651.53 613.47 654.43 603.13 660.04 597.35 669.46 593.72 674.97 591.78 681.48 591.22 688.02 590.96 689.68 592.27 690.9 593.01 692.22 597.27 692.15 601.52 692.1 605.78 691.88 605 700.41 605.09 709.11 607.3 717.44 608.44 721.45 609.21 725.76 611.9 729.09 617.93 727.43 623.74 725 629.21 721.98 634.21 731.75 641.07 740.75 650.08 747.13 652.21 747.47 653.65 745.36 655.14 744.17 662.01 737.43 668.89 730.41 672.97 721.55 678.26 724.15 683.18 727.95 689.18 728.66 693.1 722.76 695.7 715.99 696.48 708.94 697.24 703.22 696.17 697.38 697.59 691.73 701.24 691.37 706.97 693.58 708.61 688.96 709.48 679.63 708 669.84 703.3 661.63 698.83 653.76 691.93 647.55 684.44 642.62 679.27 639.24 673.18 637.23 668.64 632.95L668.42 632.01C670.57 624.26 674.02 616.31 672.29 608.13 680.58 581.36 688.29 553.65 686.57 525.32 685.79 517.29 680.59 510.36 674.2 505.75 656.88 492.62 636.07 485.3 615.5 479.01 617.63 457.12 626.38 436.14 639.96 418.89 654.86 433.03 667.53 449.48 677.71 467.31 695.16 497.27 705.92 531.28 707.64 565.97 709.25 587.1 707.01 608.45 701.98 629.01 701.39 631.99 699.69 635.48 701.65 638.27 703.55 640.37 707.39 639.18 708.29 636.63 714.23 613.65 717.64 589.81 716.09 566.03 714.22 533.57 705.92 501.29 690.42 472.62 681.23 454.1 668.81 437.37 655.12 421.95 640.23 405.63 623.36 390.89 604.24 379.72 586.15 368.36 566.28 360.13 545.85 354.03 525.51 347.93 504.21 345.33 483.01 345.24 457.17 345.76 431.19 349.6 406.86 358.54 391.91 363.83 377.51 370.62 363.94 378.83 354.6 384.26 345.52 390.18 337.29 397.2 295.62 430.65 265.9 478.71 254.78 530.98 252.17 543.84 250.03 556.88 250.22 570.04 248.94 579.01 250.36 588 250.55 596.99 252.25 609.84 253.68 622.88 257.91 635.2 258.75 638.1 261.31 640 264.36 639.73 264.89 635.11 264.36 630.49 263.09 626.03 261.09 611.75 258.29 597.49 258.32 583.02 257.99 566.22 259.59 549.42 262.84 532.94 269.44 503.38 282.01 475.16 299.6 450.51 300.72 449.34 301.19 451.78 301.64 452.43 308.69 467.87 315.63 483.4 323.6 498.39 328.07 507.3 332.89 516.12 339.11 523.94 342.1 527.47 345.93 531.31 350.93 531.1 353.41 530.82 354.23 528.32 354.95 526.31 347.53 523.05 342.32 516.6 338.55 509.62 335.41 504.11 332.21 498.62 329.46 492.9 342.48 484.67 355.44 476.15 367.02 465.94 369.4 464.12 373.39 464.32 374.64 467.36 376.91 472.79 379.34 478.4 384.25 481.99 385.12 480.11 386.82 478.26 386.26 476.03 384.5 470.34 381.14 465.26 379.54 459.51 378.89 457.5 379.93 455.52 380.58 453.65 382.85 448.02 384.95 442.27 388.16 437.09 389.72 434.76 391.95 432.33 394.98 432.29 399.71 432 404.33 433.35 408.84 434.59 415.73 436.57 422.79 438.48 428.93 442.31 432.77 444.68 434.76 449.82 432.86 454.05 430.76 458.71 430.97 464.08 428.21 468.47 425.74 475.85 423.41 483.64 417.95 489.47 414.02 487.67 409.99 486.05 406.34 483.71 401.75 480.9 395.39 479.49 390.59 482.58 385.61 486.22 383.07 492.05 380.18 497.29 373.74 509.19 368.07 521.52 360.97 533.05 359.37 535.75 357.04 538.07 353.98 539.01 345.38 542.03 336.06 542.83 327.81 546.89 321.58 550.33 315.64 554.76 311.86 560.9 307.19 568.72 304.87 577.92 305.24 587.02 305.31 596.74 307.71 606.65 313.24 614.73 314.67 616.9 316.51 618.77 317.84 621.01 316.85 623.41 314.81 625.36 314.46 628.01 313.6 634.71 314.64 641.53 316.7 647.92 317.21 649.81 318.52 651.28 319.72 652.76 326.95 650.83 334.5 648.32 339.83 642.79 342.15 640.47 343.39 637.39 344.54 634.37 351.06 634.02 357.72 634.07 364.02 632.06 374.4 629.1 383.46 622.37 390.24 614.08 397.73 603.89 399.71 590.2 396.62 578.06 394.43 569.95 392.18 561.82 388.94 554.05 387.79 551.65 388.94 549.06 389.64 546.71 395.57 529.46 403.74 513.13 410.76 496.32 412.43 497.1 414.11 497.85 415.79 498.6 415.72 506.76 413.67 514.7 412.54 522.73 411.28 532.07 409.26 541.27 407.84 550.58 403.44 548.12 398.52 545.72 393.32 546.49 393.55 550.13 395.55 553.55 398.84 555.22 405.55 558.79 413.04 560.45 420.25 562.68 423.84 564.02 427.8 565.59 429.92 568.99 429.46 571.99 428.41 574.85 427.69 577.78 422.64 575.2 416.27 575.18 411.49 578.39 408.14 580.35 406.95 584.32 406.26 587.89 404.69 595.34 407.15 603.11 411.63 609.09 405 618.06 401 630.18 404.89 641.08 406.31 645.46 409.95 648.43 413.57 650.97 407.47 659.19 400.73 667.19 396.95 676.82 390.15 692.92 387.79 710.81 389.72 728.15 393.06 760.91 416.24 789.71 445.73 803.32 450.38 805.34 455 807.8 460.12 808.34 460.49 806.73 461.9 804.92 460.47 803.43 456.35 797.77 449.19 796.19 443.72 792.29 426.77 782.85 412.52 768.11 404.84 750.19 400.42 739.39 397.56 727.78 397.99 716.04 398.51 698.46 402.72 680.35 413.39 666.03 412.09 679.98 413.09 694.35 418.18 707.51 422.55 719.63 431.23 729.54 440.56 738.16 438.2 743.63 437.9 750.12 440.32 755.61 443.13 761.2 448.31 765.1 453.62 768.14 453.8 776.83 460.89 782.99 468.11 786.55 464.47 790.77 467.01 796.29 469.42 800.41 472.72 805.73 476.21 811.09 481.01 815.2M476.56 796.5C475.12 793.89 474.19 790.57 476.13 787.95 480.35 788.13 484.59 787.7 488.8 788.07 490.18 789.31 490.15 791.25 489.62 792.88 488.24 797.38 485.93 801.58 483.02 805.26 480.44 802.68 478.27 799.71 476.56 796.5M468.73 776.97C465.32 776.01 463.57 772.74 462.2 769.75 469.44 770.82 476.68 772.15 484.04 771.89 490.67 772.09 497.14 770.47 503.68 769.68 502.86 773.95 499.32 777.41 494.97 777.89 486.29 778.96 477.19 779.59 468.73 776.97M461.01 760.49C456.25 759.12 451.52 756.62 448.71 752.41 446.73 749.69 447.42 746.17 447.55 743.04 450.98 743.72 454.05 745.48 457.36 746.55 462.76 748.37 468.4 749.35 474 750.31 477.02 750.88 479.96 749.68 482.95 749.49 486.33 749.75 489.71 750.87 493.11 750.15 499.53 748.89 506.04 747.69 512.05 745.02 514.22 744.02 516.51 743.36 518.85 742.86 519.08 746.52 519.4 750.74 516.51 753.53 510.2 760.06 500.74 761.68 492.1 762.67 481.72 763.3 471.09 763.4 461.01 760.49M482.61 744.54C478.76 740.65 472.94 740.62 467.94 739.44 458.67 737.61 449.51 734.04 442.51 727.53 430.06 716.96 423.11 701 421.91 684.89 425.6 687.6 429.02 690.72 433.1 692.87 441.07 697.38 449.88 701.51 459.29 700.76 459.59 705.7 460.45 710.69 462.93 715.04 468.53 725.42 477.18 733.71 483.07 743.93 486.26 739.75 488.56 734.95 491.92 730.88 498.66 722.1 506.27 712.84 506.57 701.19 520.93 700.79 533.95 693.38 544.59 684.21 542.94 691.8 541.91 699.64 538.59 706.75 533.11 720.19 522.07 731.49 508.37 736.54 502.77 738.75 496.79 739.65 490.92 740.79 488.5 741.1 486.72 742.83 485.04 744.43 484.22 744.47 483.41 744.51 482.61 744.54M637.15 717.04C642.18 712.05 647.23 707.03 651.29 701.18 655.49 706.97 660.05 712.48 665.71 716.9 663.73 725.5 656.82 731.74 650.96 737.89 645.02 732.09 638.17 725.75 637.15 717.04M476.82 720.06C471.19 713.81 467.34 705.49 468 696.94 468.26 692.18 469.85 686.85 473.98 684.07 477.97 683.46 482.03 684.49 486.05 683.9 488.32 683.89 491.19 683.01 492.92 685 497.92 690.3 498.65 698.28 497.4 705.15 495.52 714.56 487.55 720.8 483.39 729.11 481.49 725.89 479.32 722.84 476.82 720.06M616.08 718.63C613.32 710.08 612.71 701.03 614.03 692.15 624.7 691.97 635.38 692.08 646.05 692.33 644.45 699.46 639.48 705.35 633.59 709.45 628.18 713.22 622.39 716.64 616.08 718.63M671.14 710.89C664.5 706.44 658.27 700.48 656.44 692.39 661.24 691.41 666.15 691.89 671.01 691.74 677.2 692.05 683.51 691.03 689.62 692.33 689.19 701.24 689.5 710.65 685.46 718.85 680.6 716.36 675.6 714.09 671.14 710.89M435.6 684.42C430.43 681.54 425.52 677.58 422.91 672.14 420.67 667.72 422.02 662.64 422.51 657.98 429.97 673.15 445.99 685.17 463.42 684.17 462.24 686.88 461.07 689.59 459.93 692.31 451.26 692.24 442.99 688.73 435.6 684.42M506.11 692.38C504.94 689.62 503.77 686.86 502.5 684.15 511.97 685.09 521.24 681.45 528.64 675.73 534.87 671.27 540.75 665.69 543.29 658.27 543 663.51 544.85 669.21 542.01 674.02 538.6 680.18 532.25 683.84 526.19 686.97 519.87 689.83 513.19 692.73 506.11 692.38M600.33 683.48C601.6 680.17 602.78 676.76 604.88 673.86 609.62 666.51 617.92 662.8 625.78 659.78 628.47 658.8 631.53 658.8 634.09 660.17 640.62 663.47 648.1 662.89 655.12 664.21 663.93 665.83 673.1 667.98 680.29 673.63 683.71 676.15 685.76 679.93 687.89 683.5 658.7 683.43 629.52 683.03 600.33 683.48M696.62 683.43C692.47 671.77 681.85 663.78 670.6 659.58 662.99 657.03 655 655.96 647.06 655.11 641.03 654.54 634.6 652.42 630.68 647.57 628.96 643.41 627.29 638.59 629.15 634.17 631.35 633.39 633.68 633.06 636.03 633.12 643.83 633.12 651.73 632.05 659.47 633.48 660.75 635.5 661.9 637.66 663.71 639.27 671.86 646.08 682.42 649.47 690.06 656.96 697.47 663.69 700.72 674.02 700.76 683.82 699.37 683.69 697.99 683.56 696.62 683.43M455.77 674.83C446.71 672.9 438.81 666.96 433.41 659.55 430.73 656.1 429.9 651.67 429.39 647.44 428.53 637.65 427.61 627.77 428.51 617.95 429.18 609.91 437.01 604.32 436.5 595.98 436.14 588.09 435.22 579.83 438.42 572.34 442.22 561.76 451.4 554.07 461.37 549.46 476.41 542.24 495.07 543.03 509.34 551.74 517.17 556.77 524.14 563.79 527.42 572.65 530.24 580.45 529.95 588.88 529.59 597.03 529.08 602.56 532.55 607.19 535.21 611.7 537.07 614.79 537.09 618.53 537.24 622.02 537.38 631.05 537.39 640.11 536.5 649.1 536.04 653.84 534.31 658.48 531.14 662.07 524.79 669.34 515.92 675.01 506.08 675.58 500.04 676.19 494.08 674.59 488.04 674.8 482.35 674.97 476.66 674.65 470.98 674.97 465.92 675.42 460.79 675.75 455.77 674.83M322.63 625.15C326.84 628.66 331.54 631.58 336.9 632.95 335.36 639.25 329 641.76 323.49 643.59 321.44 637.71 321.09 631.19 322.63 625.15M411.86 628.54C413.26 623.06 415.95 617.88 419.49 613.47 421.16 619.17 420.49 625.14 420.63 630.99 420.57 633.98 420.83 637.04 420.02 639.94 419.53 641.26 418.86 643.24 417.07 642.91 412.35 639.93 410.49 633.81 411.86 628.54M545.36 626.99C545.42 622.67 544.47 618.11 546.39 614.04 553.13 619.87 557.1 629.97 553.39 638.52 552.45 641.25 549.8 642.55 547.42 643.78 544.28 638.71 545.64 632.61 545.36 626.99M326.85 618.11C320.2 612.91 316.35 605 314.33 596.96 324.8 606.98 336.94 615.84 351.08 619.78 356.34 621.42 361.82 621.97 367.24 622.76 362.34 625.51 356.56 625.93 351.05 625.92 342.45 625.9 333.62 623.58 326.85 618.11M629.32 624.86C628.59 622.49 627.91 620.02 628.38 617.52 640.61 616.89 652.89 617 665.12 617.34 664.29 620.02 663.39 622.67 662.45 625.3 651.45 624.19 640.36 625.14 629.32 624.86M317.41 589.6C315.35 587.59 313.81 584.96 313.78 582.02 313.9 574.83 316.02 567.31 321.16 562.07 322.03 560.94 323.76 561.21 324.56 562.28 331.85 569.9 340.62 575.9 349.65 581.24 361.62 588.1 375.16 591.98 388.88 593.1 388.8 600.09 386.1 607.15 380.94 611.93 375.84 616.75 368.16 615.37 361.88 614.48 345.1 610.66 329.41 601.96 317.41 589.6M632.19 608.84C631.62 596.24 631.78 583.59 630.75 571.01 630.6 566.1 629.89 561.17 630.35 556.26 631.72 550.36 637.46 547.47 641.33 543.41 643.33 541.51 642.22 536.84 638.99 537.59 635.35 539.27 632.32 541.98 628.77 543.82 624.12 546.53 618.9 548.05 613.59 548.82 613 528.4 612.7 507.93 613.77 487.53 633.46 492.91 653.1 500.1 669.65 512.32 673.19 514.8 676.46 518 678 522.12 679.99 528.59 678.79 535.41 678.52 542.03 677.15 564.87 670.93 587.06 663.8 608.69 653.26 608.38 642.71 609.59 632.19 608.84M419.4 605.44C414.38 600.96 412.29 592.84 415.98 586.92 418.08 583.47 423.75 584.18 425.39 587.68 427.98 592.75 429.25 599.61 425.42 604.41 424.05 606.35 421.38 606.11 419.4 605.44M541.37 605.61C536.5 600.41 537.32 591.81 541.27 586.33 544.26 582.52 550.48 584.48 552.23 588.55 554.73 594 551.88 600.06 548.16 604.16 546.6 606.02 543.46 607.18 541.37 605.61M360.04 576.88C348.42 572.4 338.08 564.81 329.91 555.47 334.11 553.66 338.59 550.53 343.34 551.66 348.36 555.77 353.22 560.13 358.9 563.35 364.55 567.44 371.44 569.04 378.08 570.79 380.91 571.62 384.11 571.63 386.65 573.24 388.33 577.26 388.8 581.65 389.78 585.86 379.42 584.73 369.69 580.59 360.04 576.88M351.75 548C360.2 544.16 370.4 547.03 377.29 552.77 380.59 555.48 381.63 559.78 383.01 563.63 371.95 560.06 360.15 556.44 351.75 548M436.84 543.88C442.08 533.76 451.75 526.77 461.83 521.96 468.53 518.96 475.53 515.96 482.99 515.82 489.64 516 496.03 518.21 502.06 520.85 512.1 525.31 521.58 532.07 527.44 541.52 530.7 547.74 534.55 554.96 531.78 562.09 528.8 558.46 526.31 554.39 522.71 551.3 512.32 540.89 497.46 535.94 482.95 535.81 463.84 536.48 444.25 545.68 433.95 562.21 431.48 556.02 433.91 549.43 436.84 543.88M417.06 552.4C417.02 544.19 418.85 536.15 419.9 528.04 421.15 518.83 422.57 509.63 423.52 500.38 424.07 496.31 426.47 492.89 428.58 489.49 433.62 481.64 435.81 472.46 438.51 463.65 440 458.59 441.88 453.44 441.44 448.08 441.24 444.82 439.69 441.89 438.39 438.97 442.05 430.68 444.58 421.85 448.76 413.83 454.16 411.86 458.98 407.67 460.37 401.92 462.52 394.97 459.46 386.51 452.91 383.11 445.08 379.02 433.78 382.39 430.44 390.83 428.6 394.7 429.42 399.01 429.6 403.09 429.19 405.23 427.95 407.08 426.98 408.97 423.47 414.95 420.42 421.17 416.85 427.1 409.71 425.58 402.52 424.39 395.29 423.46 395.09 421.54 394.8 419.62 394.6 417.69 381.18 411.24 368.05 403.83 356.71 394.1 365.89 388.39 374.95 382.45 384.74 377.82 388.63 375.98 392.43 373.74 396.72 372.93 399.46 385.76 400.34 399.01 398.9 412.06 398.6 414.37 398.86 416.7 399.79 418.83 403.02 416.78 405.3 413.38 405.84 409.57 407.09 401.12 407.9 392.53 407.04 383.99 406.38 379.1 405.5 374.24 404.57 369.38 416.78 364.31 429.7 360.79 442.89 359.58 457 358.47 470.76 363.07 483.55 368.56 497.25 375.22 508.82 386.04 516.73 399.03 526.85 416.58 532.23 436.41 535.67 456.24 539.01 475.74 541.52 495.35 544.47 514.9 545.81 527.57 548.54 540.11 548.86 552.87 546.55 553.33 544.24 553.69 541.89 553.75 539.66 542.18 532.77 531.82 523.93 524.18 515.18 516.87 504.91 511.55 494.01 508.28 494.27 503.86 495.2 499.11 493.19 494.94 491.38 491.22 488.16 487.98 484.1 486.87 479.8 486.34 476.11 489.56 473.92 492.93 471.1 497.53 471.64 503.14 472 508.27 465.56 510.89 458.76 512.81 452.91 516.69 444.26 521.8 436.4 528.49 430.82 536.92 427.28 542.29 425.42 548.52 423.71 554.66 421.57 553.7 419.34 552.93 417.06 552.4M557.73 550.67C557.46 542.63 555.64 534.77 554.58 526.82 552.01 506.11 548.97 485.47 545.8 464.85 543.55 451.89 541.55 438.82 537.46 426.27 531.99 406.94 522.22 388.48 507.5 374.6 498.01 365.41 485.97 359.51 473.82 354.7 503.77 353.69 534.04 358.32 562.07 369.01 560.77 376.66 559.18 384.28 558.8 392.04 558.38 409.11 563.69 425.51 567.03 442.05 571.35 458.34 570.55 475.32 570.88 492.01 570.69 508 571.61 524 571.09 539.99 571 543.22 571.21 546.44 571.61 549.63 566.96 549.68 562.31 549.88 557.73 550.67M580.19 549.59C579.22 542.77 579.46 535.87 579.34 529 579.35 514.35 579.21 499.69 579.16 485.04 579.18 470.67 577.62 456.2 579.71 441.91 582.73 422.61 588.87 403.57 599.44 387.02 604.1 390.31 609.24 392.9 613.65 396.55 611.39 399.86 609.45 403.37 607.71 406.97 603.46 416.17 599.02 425.32 595.93 434.98 592.23 445.77 590.6 457.13 589.68 468.45 587.73 494.96 588.97 521.57 588.84 548.11 588.59 552.42 582.86 549.52 580.19 549.59M597.91 464.04C600.04 441.57 608.6 420.13 620.32 401 624.8 404.87 629.66 408.28 634.13 412.17 621.94 429.55 611.43 448.73 608.25 470 604.35 496.41 605.21 523.23 605.27 549.85 602.42 549.97 599.58 550.1 596.75 550.17 596.55 521.46 595.47 492.68 597.91 464.04M367.09 539.68C375.68 524.24 383.29 508.28 391.97 492.9 393.73 489.41 398.02 487.59 401.63 489.37 402.62 491.96 402.87 494.83 401.55 497.35 394.73 513.41 386.92 529.06 381.11 545.54 377.21 542.09 372.25 540.16 367.09 539.68M310.47 452.39C309.03 448.39 305.81 444.7 306.49 440.22 311.9 443.6 317.12 447.34 322.99 449.91 332.05 454.3 342 456.44 351.94 457.64 354.61 457.88 358.04 458.81 358.39 461.99 357.21 465.31 353.8 467.08 351.14 469.11 342.74 474.58 334.38 480.1 325.88 485.4 320.48 474.53 315.7 463.35 310.47 452.39M363.36 454.58C364.31 450.54 366.6 446.94 368.2 443.12 372.41 435.05 376.48 426.85 381.63 419.32 383.25 420.98 384.86 422.64 386.49 424.28 383.91 429.03 380.71 433.42 378.32 438.26 375.44 443.61 373.63 449.44 370.8 454.8 370.05 455.74 369.57 457.53 368.07 457.32 366.35 456.69 364.76 455.75 363.36 454.58M311.32 434.31C316.37 428.36 322.06 423 327.52 417.44 334.21 410.64 341.93 405.02 349.25 398.94 356.62 405.09 364.49 410.6 372.85 415.34 371.07 420.13 368.25 424.4 365.97 428.94 362.11 435.7 358.97 442.89 354.83 449.46 339.23 448.94 323.91 443.54 311.32 434.31M425.8 430.64C429.03 423.72 432.27 416.78 436 410.1 437.24 410.91 438.48 411.69 439.74 412.46 437.57 419.79 434.23 426.69 431.54 433.83 429.64 432.75 427.72 431.68 425.8 430.64M573.68 430.21C567.96 411.52 563.73 391.06 570.06 371.95 577.56 375.6 585.3 378.77 592.5 383 586.75 392.31 582.28 402.34 578.56 412.61 576.4 418.33 575.72 424.47 573.68 430.21M442.2 404.59C437.7 402.66 436.22 396.12 439.23 392.31 441.52 389.36 446.14 388.59 449.25 390.68 453.34 393.22 453.39 399.37 450.78 402.99 448.83 405.63 445.02 405.53 442.2 404.59M387.25 788.82C394.94 792.22 402.26 797.2 410.84 797.94 412.09 797.3 412.91 796.1 413.92 795.16 412.53 792.04 410.9 788.67 407.48 787.38 389.87 780.27 372.79 771.68 357.13 760.88 347.74 754.04 338.16 747.34 329.94 739.06 313.81 724.23 300 706.95 288.98 688.02 287.06 685.27 285.15 680.82 281.1 681.41 277.69 681.35 277.61 686 278.88 688.22 282.65 695.25 287.17 701.84 291.67 708.41 301.83 723.85 314.64 737.33 328.09 749.92 338.99 759.96 351.31 768.28 363.81 776.18 371.41 780.77 379.12 785.22 387.25 788.82M553.27 792.46C552.39 794.24 553.07 796.08 553.81 797.75 561.95 797.18 569.21 793.04 576.47 789.68 593.93 781.58 610.37 771.32 625.55 759.51 628.68 756.95 632.65 754.24 632.58 749.7 628.01 745.84 622.83 750.21 619.1 753.07 602.13 766.43 582.99 776.79 563.12 785.14 559.32 786.63 554.68 788.16 553.27 792.46M475.97 693.02C473.33 700.83 477.26 709.11 482.94 714.46 486.63 710.78 489.67 706.19 490.26 700.91 490.82 695.97 489.84 690.23 485.68 687.03 481.22 684.91 476.86 688.73 475.97 693.02M293.63 681.39C305.27 694.55 323.42 702.01 340.98 700.02 354 698.48 366.26 691.71 375.08 682.09 386.87 669.08 389.03 650.35 387.06 633.55 383.62 632.45 380.42 635.68 380.34 639.02 379.87 647.51 379.85 656.36 376.04 664.18 372.46 673.68 365.15 681.69 355.96 686.02 344.22 692.41 329.83 693.21 317.37 688.5 305.57 683.5 296.69 673.43 290.74 662.32 282.65 645.11 280.55 625 285.26 606.55 285.82 603.46 288.46 601.53 290.19 599.1 294.02 593.94 295.42 587.36 295.33 581.03 294.68 568.34 288.48 556.33 279.51 547.5 275.61 544.35 270.61 540.53 265.31 542.35 265.5 548.63 268.29 554.58 267.55 560.93 266.62 570.85 263.68 580.99 266.49 590.88 267.77 596.44 272 600.67 276.55 603.82 277.14 613.55 275.24 623.21 275.67 632.94 276.04 650.46 282.35 667.94 293.63 681.39M272.7 585.01C271.77 574.8 275.8 564.95 275.67 554.75 285.34 563.49 290.36 578.31 285.91 590.91 284.86 593.57 282.39 597.24 279.07 596.04 274.6 594.41 273.33 589.22 272.7 585.01M302.4 666.61C309.58 676.17 320.79 683.45 333.02 683.59 342.94 683.88 353.41 680.64 360.25 673.18 365.5 668.06 368.15 661.05 370.16 654.16 371.18 650.4 370.89 646.45 370.28 642.65 367.92 642.78 365.58 643.02 363.26 643.35 361.95 652.72 360.36 663.23 352.69 669.71 345.51 675.22 335.71 676.36 326.97 674.97 318.54 673.6 312.24 667.1 307.66 660.32 302.19 652.6 299.84 643.16 298.63 633.91 297.85 627.92 298.92 621.77 297.27 615.89 296.13 615.39 295.01 614.89 293.9 614.36 292.45 615.24 290.39 616.08 290.55 618.12 289.92 634.89 292.63 652.57 302.4 666.61M472.06 645.19C468.33 653.47 470.44 662.8 469.67 671.57 472.12 671.13 474.94 670.59 476.32 668.23 480.17 660.32 475.73 650.1 481.99 643.13 484.31 644.61 486.03 646.91 486.49 649.66 487.59 655.59 486.75 661.82 488.53 667.64 489.7 670.27 492.74 671.11 495.37 671.29 494.96 662.39 496.93 652.74 492.35 644.59 490.48 640.63 486.53 637.37 481.97 637.52 477.3 637.35 473.79 641.23 472.06 645.19M494.2 638.43C497.04 645.86 505.56 649.21 513.02 649.04 517.38 648.5 522.38 648.04 525.52 644.55 527.22 642.9 528.09 640.65 529.03 638.52 522.55 638.88 516.53 642.14 509.95 641.58 504.43 641.71 499.84 636.94 494.2 638.43M445.82 648C453.01 649.86 461.35 648.97 467.31 644.25 469.26 642.81 470.16 640.5 470.97 638.3 465.01 637.04 459.94 641.82 454.01 641.48 447.88 642.05 442.48 638.38 436.45 638.28 437.08 643.17 441.18 646.86 445.82 648M441.49 630.32C445.65 631.47 449.84 630.11 454.02 629.87 458.1 629.56 462.18 630.08 466.24 630.44 467.42 628.43 470.3 625.42 467.57 623.43 462.51 619.96 455.82 620.65 450.07 621.52 445.79 622.18 440.23 625.16 441.49 630.32M516.44 630.46C519.18 631 523.1 631.99 524.75 628.95 525.04 623.95 519.05 621.92 515.02 621.07 509.54 620.74 503.18 620.05 498.47 623.44 495.38 625.14 497.59 630.94 500.97 630.33 506.1 629.68 511.34 629.27 516.44 630.46M482.87 593.76C486.44 597.89 488.47 603.33 493.09 606.5 494.96 605.59 496.75 604.53 498.43 603.28 498.47 602.41 498.54 600.67 498.57 599.8 494.12 597.75 489.1 595.07 487.82 589.91 486.9 585.31 486.57 579.74 489.94 575.99 492.74 572.97 497.15 572.76 501 572.71 505.43 572.79 510.59 573.62 513.3 577.54 516.67 582.72 516 589.78 512.69 594.83 511.26 596.94 510.42 599.41 511.31 601.91 516.16 601.1 519.62 597.04 521.45 592.72 523.61 587.32 523.51 581.09 521.24 575.74 518.18 569.15 511.04 565.35 504.11 564.23 496.85 562.83 489.47 565.85 484 570.53 477.77 566.48 470.5 562.79 462.84 564.22 453.99 565.58 444.69 571.5 443.13 580.92 441.27 589.6 446.11 600.71 455.74 601.85 456.26 597.21 452.24 594.25 451.03 590.13 448.96 584.52 450.98 577.33 456.27 574.26 460.83 572.02 466.25 571.69 471.14 572.9 474.48 573.66 477.22 576.28 478.09 579.6 479.3 584.36 478.75 589.81 475.66 593.76 473.69 596.73 470.25 598.11 467.26 599.76 467.13 603.01 470.54 607.14 473.92 605.26 477.56 601.98 479.81 597.54 482.87 593.76M470.02 557.1C477.68 561.97 487.86 560.57 496.21 558.09 489.2 551.63 477.69 552.06 470.02 557.1M430.02 519.91C433.3 518.88 436.93 518.03 439.3 515.34 443.43 510.78 445.31 504.75 447.18 499.02 450.79 485.25 453.26 471.23 456.22 457.32 457.95 449.79 460.88 442.05 466.94 436.92 475.32 429.77 488.53 429.27 497.56 435.52 504.89 440.23 508.35 448.86 510.16 457.03 513.52 471.87 515.82 486.95 520.13 501.56 521.34 505.5 522.5 509.62 525.13 512.89 527.71 516.28 531.75 517.97 535.44 519.81 533.62 512.35 529.83 505.57 527.92 498.14 526.63 493.52 525.68 488.8 524.52 484.14 521.19 471.88 519.95 459.14 516.07 447.02 513.23 438.55 507.65 430.46 499.4 426.53 491.54 422.92 482.45 421.78 474.04 424.03 466.48 425.58 460.06 430.68 455.71 436.9 450.24 445.33 448.13 455.32 446.04 465 442.05 483.65 437.69 502.37 430.02 519.91M548.16 443.82C550.77 448.16 555.72 450.28 560.57 450.89 559.87 444.01 554.93 438.41 549.81 434.17 546.76 432.24 543.28 429.59 539.48 430.68 540.39 436.15 545.3 439.42 548.16 443.82M197.33 309.62C202.24 313.89 209.17 314.31 215.34 313.48 226.32 310.83 234.69 300.82 236.97 289.99 239.09 292.26 241.62 294.88 245.03 294.58 248.16 295.12 250.73 291.95 250.21 288.99 250.03 286.35 248.31 284.27 246.72 282.31 245.71 282.35 243.68 282.41 242.67 282.44 245.18 280.33 247.28 277.7 248.06 274.45 244.94 274.42 241.82 274.42 238.71 274.39 238.85 260.94 238.63 247.48 238.8 234.03 239.02 230.4 239.19 226.72 240.06 223.17 240.94 220.13 243.41 217.99 246.15 216.6 246.65 217.98 247.15 219.34 247.65 220.7 249.56 220.54 251.73 220.61 253.13 219.02 253.23 218.22 253.44 216.61 253.54 215.81 249.47 214.76 244.9 214.77 241.46 217.5 235.7 221.42 228 226.06 228.24 233.98 228.32 247.44 228.2 260.9 228.25 274.37 223.98 274.35 219.72 274.38 215.46 274.47 215.61 258.98 215.29 243.48 215.56 227.99 215.59 222.73 219.01 217.92 224.03 216.28 224.45 218.45 225.72 221.47 228.49 220.39 231.05 220 230.94 217.44 230.8 215.44 226.36 213.76 221.37 214.88 217.62 217.63 213.61 220.53 209.52 223.65 206.82 227.87 204.95 231.83 205.81 236.36 205.81 240.57 199.29 235.42 191.82 231.7 184.81 227.3 180.74 224.41 176.91 229.16 173.19 230.47 173.21 232.23 173.06 234.19 174.92 235.04 180.83 238.9 186.42 243.41 192.98 246.14 190.78 248.43 187.72 249.54 185 251.06 182.47 252.68 179.55 251.13 177.08 250.21 170.84 247.5 164.36 244.3 160.26 238.65 155.27 232.7 154.91 223.91 157.8 216.93 161.44 208.83 170.6 204.95 179.04 204.63 186.42 204.27 194.72 206.88 198.44 213.75 198.35 215.31 198.26 216.86 198.19 218.4 201.69 217.54 205.27 215.51 206.48 211.92 207.02 207.93 207.44 203.06 203.98 200.18 195.72 193.45 183.86 193.56 174.13 196.66 165.15 199.44 158.34 206.39 152.58 213.51 145.92 221.68 143.31 233.92 148.56 243.46 152.48 250.58 160.03 254.5 167.21 257.59 168.2 258.13 170.81 258.92 169.44 260.38 166.06 263.69 163.5 268.15 163.63 273 163.84 276.85 165.15 281.11 168.63 283.23 172.32 285.93 177.41 286.39 181.58 284.54 187.72 281.96 192.77 276.44 194.27 269.88 195.46 264.14 191.75 258.66 187 255.77 190.16 252.68 194.27 250.92 197.91 248.5 200.65 250.06 203.42 251.55 206.23 252.98 206.26 260.13 206.21 267.28 206.36 274.42 203.84 274.64 200.84 273.78 198.8 275.7 196.49 277.45 195.36 280.19 194.13 282.7 195.77 282.74 197.42 282.76 199.07 282.78 197.08 286.19 194.33 289.21 193.35 293.12 191.23 298.77 192.59 305.71 197.33 309.62M211.19 304.01C204.22 301.5 201.45 293.03 203.23 286.3 203.59 284.87 204.43 283.45 205.86 282.86 209.57 282.56 213.3 282.84 217.02 282.81 215.09 284.95 212.19 287.36 213.35 290.61 216.79 294.36 222.82 293.15 225.93 289.61 225.15 289.59 223.58 289.55 222.8 289.53 220.8 287.75 218.41 285.89 218.48 282.91 221.75 282.75 225.03 282.68 228.31 282.68 228.2 288.49 229.3 294.85 226.28 300.14 223.13 305.02 216.29 305.57 211.19 304.01M174.42 270.96C173.97 267.39 175.39 263.94 177.74 261.28 184.43 263.65 188.02 272.12 184.15 278.31 182.67 278.37 181.2 278.43 179.73 278.48 177.29 276.61 174.26 274.43 174.42 270.96M519.08 302.91C525.43 312.04 538 314 548.28 312.32 560.56 309.27 569.34 299.5 578.47 291.41 581.4 288.68 584.75 286.31 588.73 285.46 588.26 288.36 588.08 291.65 590.18 294 593.71 296.27 598.63 293.18 598.2 289.04 598.5 286.2 596.38 284.19 594.07 283.02 612.38 283.24 630.7 283.04 649.02 283.17 653.92 283.97 655.57 278.14 655.86 274.34 643.84 274.05 631.81 274.16 619.79 274.13 619.82 270.86 619.85 267.59 619.8 264.32 632.23 270.26 647.51 258.3 646.45 245.08 646.26 238.2 640.99 231.21 634.07 230.02 628.18 229.3 624.24 234.81 621.91 239.42 626.58 237.77 630.73 241.12 633.64 244.38 636.1 247.31 638.21 251.02 637.87 254.97 637.5 257.27 634.59 256.48 632.98 256.64 626.98 256.53 620.36 252.45 619.93 246 619.32 238.29 619.22 230.27 621.83 222.88 622.67 220.26 625.05 218.69 627.21 217.22 628.23 218.93 629.45 221.62 631.93 220.5 634.7 220.54 637.11 216.24 633.78 215.13 627.78 212.93 622.34 217.49 617.71 220.69 612.65 224.11 608.73 229.51 608.99 235.84 605.89 234.41 602.48 233.41 599.04 233.93 590.6 235.07 583.75 242.08 581.44 250.07 578.97 258.71 587.07 268.33 596.01 267.36 601.37 267.17 605.43 263.29 609.26 259.99 609.3 264.69 609.29 269.38 609.3 274.08 595.49 274.05 581.67 274.21 567.87 273.9 570.43 268.89 573.88 263.9 573.53 258 573.84 251.65 569.9 245.67 564.45 242.65 561.06 241.08 557.21 241.77 553.61 241.74 553.52 235.06 556.69 228.94 560.71 223.8 570.75 211.34 585.23 202.39 600.96 199.27 611.91 197.28 623.64 197.49 633.95 202.06 644.07 205.99 652.09 213.86 662.44 217.32 671.1 220.41 681.85 219.35 688.63 212.71 693.91 207.12 697.5 199.37 696.19 191.55 693.65 190.05 690.53 188.17 687.55 189.52 685.41 191.9 688.05 197.08 691.43 195.56 692.34 194.45 692.49 192.98 692.96 191.64 693.7 191.87 695.2 192.32 695.95 192.54 695.46 196.84 694.61 201.37 691.49 204.6 687.39 209.22 680.6 209.34 674.93 208.64 664.51 206.84 655.95 200.22 647.16 194.8 636.12 189.12 623.34 185.87 610.93 188 593.67 190.42 577.92 199.45 565.28 211.19 556.47 220.21 548.46 230.51 544.37 242.59 543.05 246.27 541.06 250 541.75 254.04 541.92 257.28 545.56 260.61 548.75 258.75 551.33 257.67 551.69 253.18 555.04 254.05 558.41 254 560.97 256.87 562.01 259.83 563.88 264.48 563.15 270.71 558.8 273.68 549.54 274.59 540.13 273.78 530.82 273.96 530.39 260.28 530.55 246.58 530.57 232.89 530.63 227.22 531.48 220.14 537.36 217.51 537.94 223.14 546.9 220.87 545.25 215.73 541.99 214.48 538.19 214.14 535.14 216.11 530.7 218.93 526.77 222.53 523.14 226.31 520.61 228.88 520.54 232.64 520.55 236 520.54 248.64 520.51 261.27 520.53 273.91 516.39 273.98 512.25 273.99 508.11 274 508.2 258.66 508.09 243.31 508.17 227.96 508.12 223.3 511.45 219.56 515.22 217.25 516.18 218.45 516.81 220.11 518.37 220.64 520.77 221.63 523.44 219.57 523.76 217.13 523.5 214.31 520.22 214.12 518.01 214.28 512.98 214.68 509.12 218.16 505.36 221.16 502.2 223.78 499.05 227.01 498.25 231.18 497.72 245.44 497.91 259.72 497.88 273.99 486.32 273.94 474.75 274.16 463.19 273.95 463.24 270.69 463.23 267.42 463.15 264.15 472.62 268.83 484.51 262.43 487.76 252.85 491.23 244.45 487.26 232.61 477.95 230.15 472.07 228.66 467.35 233.89 465.5 238.89 473.75 239.74 481.72 247.14 480.1 255.94 473.65 257.79 465.71 254.35 463.43 247.88 462.79 241.61 463.1 235.23 463.42 228.94 463.63 224.29 465.52 219.09 470.37 217.56 470.78 223.21 479.2 220.88 478.28 216.02 474.63 214.17 470.09 214.31 466.76 216.76 462.35 219.92 457.39 222.68 454.25 227.23 452.49 229.7 452.12 232.77 451.8 235.69 439.64 229.86 424.8 240.64 423.52 253.34 418.68 252.9 413.69 253.42 408.98 252.04 405.54 250.87 402.3 247.98 402.07 244.15 401.6 237.51 404.72 230.95 409.37 226.33 413.44 222.1 418.66 218.98 421.93 214 424.89 209.58 427.37 204.46 427.27 199.01 427.52 191.22 421.94 183.79 414.68 181.25 407.54 179.16 399.34 179.88 393.08 184.1 386.11 189.06 380.49 196.91 379.96 205.63 382.55 202.54 383.24 198.17 386.47 195.53 394.9 187.62 409.95 190.55 415.73 200.24 418.3 205.03 417.11 211.04 414.38 215.5 411.06 220.68 405.96 224.37 402.43 229.38 397.9 235.47 392.21 241.91 392.56 249.99 392.42 255.46 396.62 260.58 402.04 261.44 409.29 262.74 416.71 262.11 424.04 262.45 428.07 262.12 430.2 266.56 434.02 267.14 440.85 269.28 447.75 265.48 452.23 260.48 452.2 264.97 452.17 269.46 452.17 273.94 428.88 274.07 405.58 274.23 382.28 274.11 382.51 258.72 382.13 243.32 382.42 227.93 382.48 223.48 384.82 219.13 388.92 217.17 389.35 218.33 389.91 219.42 390.59 220.43 393.06 221.53 396.61 219.82 396.85 217.04 396.6 214.8 393.81 214.61 392.05 214.54 387.66 214.42 384.38 217.73 381.06 220.09 376.94 223.13 372.4 226.68 371.4 232.02 370.85 236.81 371.33 241.65 371.24 246.46 365.96 246.44 360.69 246.41 355.42 246.4 355.21 242.66 356.24 238.4 353.95 235.09 352.28 232.5 348.66 232.81 346.07 233.47 340.81 235.61 337.39 240.78 335.75 246.02 334.86 248.91 334.64 252.7 337.36 254.69 339.54 256.81 342.73 256.44 345.51 256.59 345.5 262.49 345.55 268.4 345.46 274.3 338.8 274.24 332.14 274.11 325.49 274.31 325.16 259.21 325.32 244.1 325.35 229 325.1 223.99 328.12 218.76 333.02 217.18 333.36 218.45 333.7 219.71 334.05 220.96 336.35 220.9 339.56 220.91 340.25 218.1 341.04 215.61 337.83 214.94 336.05 214.91 329.45 214.88 324.59 220.03 319.87 223.95 316.23 226.89 314.62 231.5 314.34 236.04 309.76 232.55 303.56 231.43 298.13 233.46 291.26 235.4 286.12 241.17 283.58 247.66 282.58 250.55 283.3 253.64 283.89 256.53 282.6 255.83 281.31 255.13 280.02 254.42 275.41 256.42 272.57 260.68 270.08 264.83 276.39 264.63 282.72 264.38 289 265.1 294.6 265.61 300.63 265.47 305.59 262.49 308.05 261.05 309.71 258.67 311.3 256.37 306.94 256.5 302.14 257.29 298.24 254.82 294.23 252.44 291 247.47 292.69 242.73 294.55 240.6 297.83 241.31 300.32 241.62 306.22 243.14 312.06 247.13 314.37 252.91 314.92 260.05 314.44 267.23 314.67 274.38 300.08 274.34 285.49 274.27 270.91 274.36 266.53 274.6 264.75 279.44 262.93 282.73 348.62 283.38 434.31 283.17 520 283.11 516.88 289.08 514.97 296.94 519.08 302.91M533.49 299.55C528.23 296.08 526.4 288.72 528.88 283.04 546.92 283.37 564.97 283.02 583.01 283.13 586.52 283.51 589.82 280.28 593.2 282.38 586.45 282.41 580.57 286.21 575.44 290.22 568.4 295.59 560.81 300.97 551.83 302.26 545.68 303.09 538.87 303.05 533.49 299.55M355.38 256.4C360.7 256.47 366.02 256.31 371.34 256.5 371.12 262.4 371.16 268.3 371.19 274.2 365.95 274.2 360.7 274.13 355.46 274.35 355.31 268.37 355.47 262.39 355.38 256.4M444.43 258.43C438.67 256.67 433.83 251.14 434.16 244.94 435.78 241.96 439.9 242.8 442.55 243.67 448.16 246.03 453.98 252.1 451.6 258.6 449.26 259.24 446.74 259.09 444.43 258.43M600.53 258.35C594.88 256.75 590.5 250.95 591.32 245.03 592.48 242.07 596.53 242.61 598.98 243.37 604.64 245.56 610.29 251.17 608.75 257.75 606.66 259.98 603.12 258.97 600.53 258.35M686 285.14C695.73 288.93 706.73 277.44 703.05 267.95 700.57 262.6 691.98 263.8 690.33 269.02 692.21 272.05 698.22 272.93 696.59 277.56 692.74 278.26 688.95 275.69 687.77 272.04 686.98 268.7 688.42 265.08 690.92 262.8 694.27 261.3 698.4 261.84 701.44 259.48 704.01 257.79 705.22 254.85 706.1 252.02 702.28 253.02 698 252.82 694.98 249.98 692.56 248.21 689.8 244.2 692.77 241.72 702.05 239.51 710.64 246.27 715.28 253.74 715.77 260.54 715.37 267.39 715.53 274.2 709.98 272.99 707.51 278.78 705.61 282.81 740.74 282.98 775.87 282.77 811 282.81 815.64 283.64 816.53 277.86 816.76 274.46 813.01 274.4 809.26 274.38 805.52 274.43 805.46 259.31 805.38 244.2 805.58 229.08 805.98 224.38 807.41 217.83 813.05 217.09 813.65 218.24 813.11 220.73 815.12 220.44 818.01 221.04 820.43 218.45 819.53 215.61 816.24 215.18 812.6 214.63 809.7 216.65 804.47 219.82 798.91 223.37 795.91 228.86 794.69 234.66 795.62 240.71 795.44 246.6 789.74 246.61 784.05 246.55 778.36 246.57 778.25 242.85 778.95 238.6 776.52 235.42 774.87 232.93 771.46 233 768.91 233.73 762.35 236.23 757.75 243.09 757.67 250.05 757.92 255.24 763.95 256.8 768.22 256.58 768.22 262.53 768.23 268.48 768.31 274.42 761.44 274.41 754.57 274.3 747.71 274.33 747.69 259.55 747.54 244.76 747.68 229.97 747.61 224.63 750.17 218.53 755.72 216.95 756.05 218.13 756.39 219.31 756.75 220.48 758.39 220.45 760.25 220.83 761.69 219.74 763.37 219 762.6 216.87 762.92 215.43 756.91 213.63 750.96 216.69 746.63 220.68 742.96 223.99 738.37 227.63 738.32 233.03 738.25 246.77 738.3 260.52 738.23 274.27 734 274.26 729.77 274.26 725.54 274.3 725.73 260.2 725.43 246.1 725.47 231.99 725.09 226.31 726.86 218.96 733.13 217.28 733.26 218.09 733.53 219.7 733.66 220.51 735.39 220.54 737.43 221.19 738.91 219.93 740.26 218.99 740.06 216.91 739.28 215.66 735.65 214.5 731.5 215.13 728.45 217.43 724.31 220.53 719.73 223.35 716.75 227.69 714.87 230.32 715.14 233.7 715.16 236.75 705.12 228.4 687.24 231.75 681.88 243.93 679.38 249.37 681.77 255.71 686.3 259.25 683.12 261.24 679.44 263.29 678.2 267.09 675.45 273.88 678.93 282.7 686 285.14M778.17 274.41C778.2 268.4 778.12 262.39 778.23 256.38 783.96 256.28 789.7 256.29 795.45 256.31 795.31 262.33 795.3 268.36 795.36 274.38 789.62 274.33 783.9 274.37 778.17 274.41M498.05 171.56C504 169.56 510.49 173.13 516.2 170.13 521.28 167.44 524.6 162.5 527.94 158 529.07 156.65 529.83 154.33 532.01 154.68 544.48 154.36 556.96 154.57 569.43 154.49 570.23 152.82 571 151.14 571.77 149.42 568.28 149.1 564.78 149.15 561.29 149.03 561.33 145.46 561.3 141.87 561.13 138.28 556.03 137.77 550 137.91 546.39 133.6 543.21 130.24 544.77 122.85 549.99 122.8 555.56 122.36 560.49 125.87 563.82 130.02 565.12 128.12 566.49 126.25 567.92 124.42 565.4 120.33 561.07 117.08 556.09 117.19 550.27 116.69 545.55 120.85 542.04 124.98 539.06 128.65 537.3 134.43 540.58 138.47 543.87 142.91 549.92 142.86 554.9 142.81 554.99 144.81 555.05 146.81 555.07 148.79 547.56 148.86 540.05 148.85 532.55 148.76 532.84 139.17 532.44 129.56 532.9 119.98 532.82 117.25 534.75 115.19 536.92 113.81 537.2 114.39 537.77 115.53 538.06 116.1 539.4 115.6 541.8 115.54 541.31 113.49 540.24 111.24 537.02 112.36 535.33 113.29 531.73 115.44 527.85 118.08 526.17 122.05 525.46 130.92 526.56 139.85 525.89 148.74 518.63 148.77 511.36 148.73 504.1 148.85 504.1 146.76 504.12 144.67 504.11 142.57 512.29 147.77 523.24 137.7 520.22 129.01 519.08 124.96 514.79 121.5 510.46 122.58 508.07 123.07 506.56 125.14 504.95 126.77 510.32 126.51 514.09 131.35 516.07 135.8 515.4 136.57 514.73 137.33 514.07 138.08 509.58 138.77 504.35 135.89 504.21 130.98 504.11 125.48 502.65 118.38 507.51 114.4 508.6 113.29 509.45 115.25 510.36 115.68 511.89 116.68 514.49 115.04 513.79 113.16 511.79 111.24 508.55 112.26 506.36 113.35 502.06 115.82 497.76 119.68 497.51 124.99 489.83 121.49 480.64 127.83 480 135.91 479.45 142.5 488.25 147.47 493.62 143.7 495.02 142.84 496.37 141.86 497.72 140.89 497.74 143.51 497.74 146.12 497.76 148.73 489.79 148.81 481.81 148.7 473.84 148.8 473.95 139.16 473.47 129.5 474.26 119.89 474.36 117.03 476.64 115.09 478.98 113.83 479.27 114.41 479.86 115.57 480.16 116.15 482 116.11 484.95 115.57 484.09 113.01 481.33 110.86 477.68 112.55 475.09 114.14 472.18 116.26 469 118.54 467.65 122 467.04 126.95 467.54 131.96 467.47 136.93 464.96 136.97 462.46 137 459.96 136.97 461.34 134.21 463.11 131.28 462.52 128.05 461.95 124.11 458 121.05 454.01 121.79 444.43 122.42 438.82 132.2 436.82 140.61 438.93 140.22 439.48 137.96 440.54 136.44 442.77 132.63 446.2 128.59 450.95 128.39 453.7 128.21 457.04 130.73 455.65 133.72 453.58 136.93 449.91 139.12 449.18 143.12 455.29 143.17 461.4 142.87 467.51 143.14 467.48 145.01 467.46 146.87 467.44 148.72 455.35 148.74 443.26 148.74 431.17 148.88 431.21 139.27 430.96 129.65 431.3 120.05 431.28 117.33 433.65 115.65 435.44 113.98 435.81 114.5 436.56 115.53 436.94 116.05 438.44 115.92 441.18 115.07 440.14 112.99 437.11 111.33 433.67 113.46 431.19 115.23 428.16 117.69 424.44 120.66 424.74 125.01 424.62 132.93 424.67 140.86 424.67 148.78 421.12 148.85 417.58 148.87 414.04 148.9 417.57 144.83 419.5 138.47 416.29 133.65 414.06 129.78 409.46 128.1 405.16 128.34 407.99 123.02 411.24 117.24 416.63 114.17 417.4 115.76 419.03 115.69 420.54 115.67 420.6 114.61 420.69 113.54 420.81 112.46 418.18 112.33 415.44 112.55 413.36 114.34 406.47 119.47 400.1 126.45 398.36 135.09 397.65 137.47 399.35 140.41 402.07 139.82 404.59 140.11 404.83 136.94 405.99 135.39 408.81 136.53 411.71 138.81 411.64 142.15 412.03 144.8 410.67 147.16 409.28 149.27 404.6 149.28 399.91 149 395.24 149.35 393.59 150.54 393.13 152.77 392.15 154.45 437.04 154.39 481.93 154.91 526.82 154.59 524.51 157.9 522.41 161.75 518.69 163.65 513.97 165.67 508.89 163.56 504.04 163.56 501.42 165.71 499.68 168.66 498.05 171.56M491.29 138.76C488.83 137.82 487.05 135.55 486.57 132.97 486.69 131.56 487.17 129.8 488.94 129.85 492.16 129.62 494.91 131.91 496.69 134.36 497.26 135.27 498.12 136.43 497.42 137.5 496.31 139.65 493.23 139.6 491.29 138.76" fill="#d7ac61"/>
</svg>
